<svg width="16" height="15" viewBox="0 0 16 15" fill="none" xmlns="http://www.w3.org/2000/svg">
<path d="M15.8032 7.67278C15.8067 9.11803 15.3461 10.5317 14.4798 11.7347C13.6134 12.9378 12.3803 13.876 10.9367 14.4306C9.49312 14.9851 7.90401 15.1311 6.37062 14.8499C4.83723 14.5687 3.42851 13.8731 2.32311 12.8511C1.21772 11.8292 0.465377 10.5269 0.16125 9.10924C-0.142876 7.6916 0.0149919 6.2224 0.614829 4.88777C1.21467 3.55314 2.22944 2.41314 3.53069 1.6122C4.83194 0.811255 6.3611 0.385413 7.92436 0.388621C10.014 0.388621 12.0179 1.15605 13.4955 2.5221C14.9731 3.88814 15.8032 5.7409 15.8032 7.67278Z" fill="#02043B"/>
</svg>
