<svg width="177" height="183" viewBox="0 0 177 183" fill="none" xmlns="http://www.w3.org/2000/svg">
<path d="M159.498 38.1516C161.867 40.8933 159.498 42.3372 156.41 43.5863C159.322 55.6888 135.967 60.6368 123.56 68.5536C124.824 74.6211 114.137 77.4439 108.961 81.743C110.557 83.9169 112.646 84.0954 111.909 86.7235C109.523 88.889 106.534 90.3998 103.275 91.0875C104.223 95.9544 99.1514 98.1445 99.8884 103.141C100.327 106.094 102.872 108.154 102.977 111.918C96.9053 117.353 88.9387 120.711 92.3429 128.287C96.9229 138.313 103.486 153.514 106.557 161.869H106.75C99.5024 171.424 88.5 183.64 74.8479 182.18L75.971 181.239C73.2686 171.083 67.2848 161.187 62.5469 146.619C60.4588 140.13 59.5989 122.804 55.4401 119.153C47.9824 112.664 32.7685 128.157 23.2401 125.042C18.783 120.516 13.4134 118.926 8.57025 115.617C8.42432 114.406 7.9171 113.256 7.10522 112.297C6.29333 111.337 5.20878 110.605 3.97276 110.182C5.14845 106.597 3.62181 102.281 2.41102 98.031C4.53429 96.1166 4.0605 93.4561 2.93745 90.6495C5.85037 87.2751 8.53515 83.4627 14.7119 82.1324C23.0295 74.8644 41.6126 66.1202 56.1772 59.923C62.7751 57.1164 68.6887 53.7582 74.2688 51.4545C77.9363 49.9296 82.3934 49.6376 86.2188 48.0153C93.5011 44.9004 98.9409 41.3151 104.644 41.2989C106.094 41.6443 107.439 42.2937 108.575 43.197C123.543 35.9615 139.774 24.7514 150.426 31.1433L153.128 29.7805C154.479 29.7805 155.234 31.7111 156.497 31.9544C157.761 32.1978 159.077 31.0297 160.288 30.835C144.518 10.3831 117.173 0.151791 78.2521 0.140976H0.796631V182.91H78.2521C143.705 182.91 176.426 150.788 176.414 86.545C176.414 65.6281 172.097 48.5236 163.464 35.2315C162.43 36.499 161.066 37.5037 159.498 38.1516Z" fill="#02043B"/>
</svg>
