<svg width="139" height="151" viewBox="0 0 139 151" fill="none" xmlns="http://www.w3.org/2000/svg">
<path d="M91.3274 81.6132L90.0113 80.4776C87.6293 82.4186 84.6777 83.6622 81.5305 84.051C78.3834 84.4397 75.1821 83.9561 72.3325 82.6614C69.4829 81.3667 67.1131 79.3192 65.5233 76.7782C63.9335 74.2373 63.1951 71.3172 63.4019 68.388C63.6087 65.4587 64.7514 62.6521 66.685 60.3238C68.6186 57.9954 71.2562 56.25 74.2637 55.3088C77.2711 54.3675 80.5131 54.2727 83.5789 55.0364C86.6447 55.8 89.3964 57.3878 91.4853 59.5985C95.6208 55.0094 98.9706 49.8609 101.417 44.3326C108.261 29.5588 115.76 22.1665 123.913 22.1557H132.88V0.140976H120.737C99.68 0.140976 84.5071 10.3453 75.2185 30.7539C65.9299 51.1625 55.9863 61.3668 45.3875 61.3668V81.6132C51.2367 81.6132 56.776 84.1278 62.0052 89.157C67.2344 94.1861 79.9565 114.492 100.171 150.075H138.039C113.356 110.231 97.7849 87.4103 91.3274 81.6132ZM0.535583 150.075H30.5948V0.140976H0.535583V150.075Z" fill="#02043B"/>
</svg>
